<?xml version="1.0" encoding="utf-8"?>
<!-- Generator: Adobe Illustrator 26.5.0, SVG Export Plug-In . SVG Version: 6.00 Build 0)  -->
<svg version="1.1" id="Icons" xmlns="http://www.w3.org/2000/svg" xmlns:xlink="http://www.w3.org/1999/xlink" x="0px" y="0px"
	 width="48px" height="48px" viewBox="0 0 70 70" style="enable-background:new 0 0 70 70;" xml:space="preserve">
<style type="text/css">
	.st0{fill:#00C8C8;}
	.st1{fill:#FEBD73;}
	.st2{fill:#FF8680;}
</style>
<path class="st0" d="M60.2,40.4V29.5h-5.5c-0.5-1.6-1.3-3-2.2-4.4l4.4-4.4l-7.7-7.7l-4.4,4.4c-1.3-0.9-2.8-1.7-4.4-2.2V9.8H29.6v5.5
	c-1.6,0.5-3,1.3-4.4,2.2l-4.4-4.4l-7.7,7.7l4.4,4.4c-0.9,1.3-1.7,2.8-2.2,4.4H9.9v10.9h5.5c0.5,1.6,1.3,3,2.2,4.4l-4.4,4.4l7.7,7.7
	l4.4-4.4c1.3,0.9,2.8,1.7,4.4,2.2v5.5h10.9v-5.5c1.6-0.5,3-1.3,4.4-2.2l4.4,4.4l7.7-7.7l-4.4-4.4c0.9-1.3,1.7-2.8,2.2-4.4H60.2z
	 M35,48.1c-7.2,0-13.1-5.9-13.1-13.1S27.8,21.8,35,21.8S48.1,27.7,48.1,35S42.3,48.1,35,48.1z"/>
<path class="st1" d="M69.2,21.9c-0.6-0.2-1.2,0.2-1.4,0.8l-1.1,4c-4.6-17.5-22.5-28-40-23.4C14.3,6.5,4.9,16.7,2.7,29.3
	c-0.1,0.6,0.3,1.2,0.9,1.3c0.6,0.1,1.2-0.3,1.3-0.9C7.8,13,23.6,1.9,40.3,4.8c11.9,2.1,21.4,10.9,24.4,22.6l-3.8-3.2
	c-0.5-0.4-1.2-0.3-1.5,0.1C59,24.9,59,25.6,59.5,26l0,0l6.6,5.5c0.2,0.2,0.4,0.3,0.7,0.3c0.1,0,0.2,0,0.3,0c0.4-0.1,0.6-0.4,0.7-0.7
	l2.2-7.7C70.2,22.7,69.8,22.1,69.2,21.9C69.2,21.9,69.2,21.9,69.2,21.9L69.2,21.9z"/>
<path class="st1" d="M66.4,39.4c-0.6-0.1-1.2,0.3-1.3,0.9c-2.9,16.7-18.8,27.8-35.4,24.9c-11.9-2.1-21.5-11-24.4-22.7l3.8,3.2
	c0.5,0.4,1.2,0.3,1.5-0.1c0.4-0.5,0.3-1.2-0.1-1.5L4,38.5c-0.5-0.4-1.2-0.3-1.5,0.1c-0.1,0.1-0.2,0.3-0.2,0.4l-2.2,7.7
	c-0.2,0.6,0.2,1.2,0.8,1.4c0.1,0,0.2,0,0.3,0c0.5,0,0.9-0.3,1.1-0.8l1.1-4c4.6,17.5,22.6,28,40.1,23.4c12.4-3.3,21.7-13.4,23.9-26.1
	C67.4,40,67,39.5,66.4,39.4C66.4,39.4,66.4,39.4,66.4,39.4L66.4,39.4z"/>
<path class="st2" d="M30.6,27.3v15.3L43.8,35L30.6,27.3z"/>
</svg>
