<?xml version="1.0" encoding="utf-8"?>
<!-- Generator: Adobe Illustrator 26.5.0, SVG Export Plug-In . SVG Version: 6.00 Build 0)  -->
<svg version="1.1" id="Layer_1" xmlns="http://www.w3.org/2000/svg" xmlns:xlink="http://www.w3.org/1999/xlink" x="0px" y="0px"
	 width="48px" height="48px" viewBox="0 0 70 70" style="enable-background:new 0 0 70 70;" xml:space="preserve">
<style type="text/css">
	.st0{fill:#FF633E;}
	.st1{fill:#FF3100;}
	.st2{fill:#0089FF;}
	.st3{fill:#4B5BE7;}
	.st4{fill:#FFB74F;}
	.st5{fill:#FF9A00;}
</style>
<g>
	<path class="st0" d="M42.2,12.5l-3.5,2.2c-0.8-1.3-2.2-2.1-3.7-2.1s-2.9,0.8-3.7,2.1l-3.5-2.2c1.6-2.5,4.3-4,7.2-4
		S40.7,9.9,42.2,12.5z"/>
	<path class="st0" d="M48.3,8.3l-3.5,2.2C42.7,7,39,5,35,5s-7.7,2-9.8,5.5l-3.5-2.2c2.9-4.6,7.9-7.4,13.3-7.4
		C40.5,0.9,45.4,3.6,48.3,8.3z"/>
	<path class="st0" d="M37.4,18c0,1.3-1.1,2.4-2.4,2.4s-2.4-1.1-2.4-2.4s1.1-2.4,2.4-2.4S37.4,16.7,37.4,18z"/>
</g>
<path class="st1" d="M37.4,18c0,1.3-1.1,2.4-2.4,2.4v-4.9C36.3,15.6,37.4,16.7,37.4,18z"/>
<path class="st1" d="M42.2,12.5l-3.5,2.2c-0.8-1.3-2.2-2.1-3.7-2.1V8.4C38,8.4,40.7,9.9,42.2,12.5z"/>
<path class="st1" d="M48.3,8.3l-3.5,2.2C42.7,7,39,5,35,5V0.9C40.5,0.9,45.4,3.6,48.3,8.3z"/>
<path class="st2" d="M14.2,70.8C6.4,70.8,0,64.4,0,56.6c0-7.8,6.4-14.2,14.2-14.2c7.8,0,14.2,6.4,14.2,14.2
	C28.4,64.4,22,70.8,14.2,70.8z M14.2,46.5C8.6,46.5,4.1,51,4.1,56.6c0,5.6,4.5,10.1,10.1,10.1s10.1-4.5,10.1-10.1
	C24.3,51,19.8,46.5,14.2,46.5z"/>
<path class="st3" d="M55.8,70.8c-7.8,0-14.2-6.4-14.2-14.2c0-7.8,6.4-14.2,14.2-14.2c7.8,0,14.2,6.4,14.2,14.2
	C70,64.4,63.6,70.8,55.8,70.8z M55.8,46.5c-5.6,0-10.1,4.5-10.1,10.1c0,5.6,4.5,10.1,10.1,10.1c5.6,0,10.1-4.5,10.1-10.1
	C65.9,51,61.4,46.5,55.8,46.5z"/>
<path class="st4" d="M42.8,24.5H35v4.1h5.2l3.8,8.1H23l-1.3-3.3h2.7v-4.1H14.2v4.1h3.1l1.9,4.9l-8,20.5h21.8v3h-2.4v4.1h9v-4.1h-2.4
	v-3.3l8.4-18.8l8.5,17.9l3.7-1.8L42.8,24.5z M35,52.9l-0.7,1.6h-17l5.4-13.8h17.8L35,52.9z"/>
<path class="st5" d="M57.6,55.7l-3.7,1.8l-8.5-17.9l-8.4,18.8v3.3h2.4v4.1H35V52.9l5.5-12.2H35v-4.1h9l-3.8-8.1H35v-4.1h7.8
	L57.6,55.7z"/>
</svg>
