<?xml version="1.0" encoding="utf-8"?>
<!-- Generator: Adobe Illustrator 26.5.0, SVG Export Plug-In . SVG Version: 6.00 Build 0)  -->
<svg version="1.1" id="Flat" xmlns="http://www.w3.org/2000/svg" xmlns:xlink="http://www.w3.org/1999/xlink" x="0px" y="0px"
	 width="48px" height="48px" viewBox="0 0 70 70" style="enable-background:new 0 0 70 70;" xml:space="preserve">
<style type="text/css">
	.st0{fill:#F03D35;}
	.st1{fill:#E4E7EC;}
	.st2{fill:#D0D5DE;}
	.st3{fill:#76736F;}
	.st4{fill:#68645E;}
	.st5{fill:#FF826D;}
	.st6{fill:#FF5555;}
	.st7{fill:#5BA1F4;}
	.st8{fill:#71AAFF;}
	.st9{fill:#E1FCFC;}
	.st10{fill:#F5FFFF;}
	.st11{fill:#FFDE3E;}
</style>
<g>
	<path class="st0" d="M0.6,33.3V39c0,0.6,0.4,1,1,1.1l8.8,1.5l-2.9-8.7c-0.2-0.5-0.6-0.8-1.1-0.8H1.7C1.1,32.1,0.6,32.6,0.6,33.3
		L0.6,33.3z"/>
	<path class="st0" d="M62.6,32.9l-2.9,8.7l8.8-1.5c0.6-0.1,1-0.6,1-1.1v-5.7c0-0.6-0.5-1.1-1.1-1.1h-4.6
		C63.2,32.1,62.8,32.4,62.6,32.9L62.6,32.9z"/>
	<path class="st1" d="M4,58.5h62c1.3,0,2.3,1,2.3,2.3l0,0c0,1.3-1,2.3-2.3,2.3H4c-1.3,0-2.3-1-2.3-2.3l0,0C1.7,59.6,2.7,58.5,4,58.5
		z"/>
	<path class="st2" d="M68.3,60.8h-62c-1.3,0-2.3,1-2.3,2.3h62C67.3,63.1,68.3,62.1,68.3,60.8z"/>
	<path class="st3" d="M6.3,63.1h10.3l0,0v4.6c0,1.3-1,2.3-2.3,2.3H8.6c-1.3,0-2.3-1-2.3-2.3V63.1L6.3,63.1z"/>
	<path class="st4" d="M6.3,63.1h10.3v2.3H6.3V63.1z"/>
	<path class="st3" d="M61.4,70h-5.7c-1.3,0-2.3-1-2.3-2.3v-4.6l0,0h10.3l0,0v4.6C63.7,69,62.7,70,61.4,70z"/>
	<path class="st4" d="M53.4,63.1h10.3v2.3H53.4V63.1z"/>
	<path class="st5" d="M61.4,40.2l-3.2-14.4c-0.8-3.7-4.1-6.3-7.8-6.3H19.6c-3.8,0-7,2.6-7.8,6.3L8.6,40.2C5.7,43.1,4,47.1,4,51.2
		v7.3h62v-7.3C66,47.1,64.3,43.1,61.4,40.2z"/>
	<path class="st6" d="M6.3,58.5H66v-7.3c0-4.2-1.7-8.1-4.6-11.1l-3.2-14.4l0,0c-0.6-2.4-2.7-4-5.2-3.9H19.6c-2.7,0-5,1.9-5.6,4.5
		l-3.3,15l-0.5,0.5c-2.5,2.5-3.9,5.9-3.9,9.5L6.3,58.5z"/>
	<path class="st7" d="M53.7,26.8c-0.3-1.6-1.7-2.7-3.4-2.7H19.6c-1.6,0-3,1.1-3.4,2.7l-3,13.4h43.4L53.7,26.8z"/>
	<path class="st8" d="M56.7,40.2l-3-13.4c0-0.1-0.1-0.3-0.1-0.4h-34c-0.5,0-1,0.4-1.1,0.9l-2.9,12.9H56.7z"/>
	<path class="st3" d="M30.4,40.2c0-3.2-2.6-5.7-5.7-5.7s-5.7,2.6-5.7,5.7h-2.3c0-4.4,3.6-8,8-8s8,3.6,8,8H30.4z"/>
	<path class="st9" d="M43,45.9H27c-1.3,0-2.3,1-2.3,2.3c0,0.1,0,0.3,0,0.4l0.4,2.3c0.2,1.1,1.1,1.9,2.3,1.9h15.3
		c1.1,0,2.1-0.8,2.3-1.9l0.4-2.3c0.2-1.3-0.6-2.4-1.9-2.6C43.3,45.9,43.2,45.9,43,45.9z"/>
	<path class="st10" d="M45.7,46C45,45.2,44,44.8,43,44.8H27c-1.9,0-3.4,1.5-3.4,3.4c0,0.2,0,0.4,0,0.6l0.4,2.3
		c0.3,1.7,1.7,2.9,3.4,2.9h15.3c1.7,0,3.1-1.2,3.4-2.9l0.4-2.3C46.6,47.8,46.3,46.7,45.7,46z M36.1,47h3l-0.4,4.6h-2.6V47z
		 M33.9,51.6h-2.6L30.9,47h3V51.6z M26.2,50.7l-0.4-2.3c-0.1-0.6,0.3-1.2,0.9-1.3c0.1,0,0.1,0,0.2,0h1.6l0.4,4.6h-1.6
		C26.8,51.6,26.3,51.2,26.2,50.7z M43.8,50.7c-0.1,0.6-0.6,1-1.1,1H41l0.4-4.6H43c0.6,0,1.1,0.5,1.1,1.1c0,0.1,0,0.1,0,0.2
		L43.8,50.7z"/>
	<circle class="st11" cx="13.2" cy="49.3" r="3.4"/>
	<circle class="st11" cx="56.8" cy="49.3" r="3.4"/>
	<g>
		<circle class="st8" cx="35" cy="14.9" r="1.1"/>
		<path class="st8" d="M39.1,10.9c-2.2-2.2-5.9-2.2-8.1,0c-0.4,0.5-0.4,1.2,0,1.6c0.4,0.4,1.1,0.4,1.6,0c1.4-1.3,3.5-1.3,4.9,0
			c0.4,0.5,1.2,0.5,1.6,0C39.5,12.1,39.5,11.3,39.1,10.9C39.1,10.9,39.1,10.9,39.1,10.9z"/>
		<path class="st8" d="M42.3,7.6c-4-4-10.6-4-14.6,0c-0.4,0.5-0.4,1.2,0,1.6c0.4,0.4,1.1,0.4,1.6,0c3.1-3.1,8.2-3.1,11.4,0
			c0.5,0.4,1.2,0.4,1.6,0C42.7,8.8,42.7,8.1,42.3,7.6z"/>
		<path class="st8" d="M45.5,4.4c-5.8-5.8-15.3-5.8-21.1,0C24,4.8,24,5.5,24.4,6c0.4,0.5,1.2,0.5,1.6,0c0,0,0,0,0,0
			C31,1.1,39,1.1,43.9,6c0.4,0.5,1.2,0.5,1.6,0C46,5.6,46,4.8,45.5,4.4C45.6,4.4,45.6,4.4,45.5,4.4z"/>
	</g>
</g>
</svg>
