<?xml version="1.0" encoding="utf-8"?>
<!-- Generator: Adobe Illustrator 26.5.0, SVG Export Plug-In . SVG Version: 6.00 Build 0)  -->
<svg version="1.1" id="Layer_1" xmlns="http://www.w3.org/2000/svg" xmlns:xlink="http://www.w3.org/1999/xlink" x="0px" y="0px"
	 width="48px" height="48px" viewBox="0 0 70 70" style="enable-background:new 0 0 70 70;" xml:space="preserve">
<style type="text/css">
	.st0{fill:#4FBA6F;}
	.st1{fill:#269968;}
	.st2{fill:#E03E36;}
	.st3{fill:#EFEAEA;}
	.st4{fill:#F3D55B;}
</style>
<path class="st0" d="M69.8,65.8l-8.7-21.7c-0.3-0.8-1.1-1.3-2-1.3H9.5c-0.9,0-1.7,0.6-2,1.5L0.1,65.9c-0.4,1.1,0.2,2.3,1.3,2.7
	c0.2,0.1,0.5,0.1,0.7,0.1h65.7c1.2,0,2.1-1,2.1-2.1C70,66.3,69.9,66,69.8,65.8z"/>
<path class="st1" d="M69.8,65.8L64,51.2c-1.9,0.7-15.1,4.8-15.1,4.8s7.2,10.6,8.5,12.6h10.5c1.2,0,2.1-1,2.1-2.1
	C70,66.3,69.9,66,69.8,65.8z"/>
<path class="st1" d="M27.5,63.3L13.3,42.7H9.5c-0.9,0-1.7,0.6-2,1.5L0.1,65.9c-0.4,1.1,0.2,2.3,1.3,2.7c0.2,0.1,0.5,0.1,0.7,0.1h7.7
	L27.5,63.3z"/>
<path class="st2" d="M18.8,33.7c3.6,6.7,9.2,12.7,14.1,17.9l0,0c0.2,0.2,1,0.9,2,0.9h0c1,0,1.8-0.7,2-0.9l0,0
	c5-5.2,10.6-11.2,14.1-17.9c2-3.7,3.2-7.4,3.5-10.8c0.4-4-0.4-7.9-2.3-11.4l0,0C49,5.3,42.4,1.4,35,1.3h0h0c-7.3,0.1-14,4-17.3,10.2
	c-1.9,3.5-2.7,7.5-2.3,11.4C15.6,26.3,16.8,30,18.8,33.7L18.8,33.7z"/>
<path class="st3" d="M35,31.5c5.8,0,10.6-4.7,10.6-10.5S40.8,10.6,35,10.6S24.4,15.3,24.4,21S29.2,31.5,35,31.5z"/>
<path class="st2" d="M18.8,33.7c3.6,6.7,9.2,12.7,14.1,17.9l0,0c0.2,0.2,1,0.9,2,0.9h0c1,0,1.8-0.7,2-0.9l0,0
	c5-5.2,10.6-11.2,14.1-17.9c2-3.7,3.2-7.4,3.5-10.8c0.4-4-0.4-7.9-2.3-11.4l0,0C49,5.3,42.4,1.4,35,1.3h0h0c-7.3,0.1-14,4-17.3,10.2
	c-1.9,3.5-2.7,7.5-2.3,11.4C15.6,26.3,16.8,30,18.8,33.7L18.8,33.7z"/>
<path class="st3" d="M35,31.5c5.8,0,10.6-4.7,10.6-10.5S40.8,10.6,35,10.6S24.4,15.3,24.4,21S29.2,31.5,35,31.5z"/>
<path class="st4" d="M64.4,52.2l-1.1-2.8L28.5,61.2L15.2,42.7h-3.7l14.1,19.5L6.5,68.7h9.4l32-10.9l7.8,10.9h3.7l-8.6-11.9
	L64.4,52.2z"/>
</svg>
