<?xml version="1.0" encoding="utf-8"?>
<!-- Generator: Adobe Illustrator 26.5.0, SVG Export Plug-In . SVG Version: 6.00 Build 0)  -->
<svg version="1.1" id="Layer_1" xmlns="http://www.w3.org/2000/svg" xmlns:xlink="http://www.w3.org/1999/xlink" x="0px" y="0px"
	 width="48px" height="48px" viewBox="0 0 70 70" style="enable-background:new 0 0 70 70;" xml:space="preserve">
<style type="text/css">
	.st0{fill:#7A838B;}
	.st1{fill:#6DBC53;}
	.st2{fill:#62A94B;}
	.st3{fill:#FCBF44;}
	.st4{fill:#D6E4E8;}
	.st5{fill:#5D6972;}
</style>
<g id="Layer_32">
	<path class="st0" d="M3.6,32.6H6v12.1H3.6V32.6z"/>
	<path class="st1" d="M10.7,39.2L16.5,29c1.7-3,4.9-4.9,8.4-4.9h15.3c3.5,0,6.7,1.9,8.4,4.9l5.7,10c0.7,1.3,2,2.1,3.4,2.4l4.2,0.7
		c4.7,0.8,8.1,4.8,8.1,9.5v3.9c0,2.7-2.2,4.8-4.8,4.8H4.8c-2.7,0-4.8-2.2-4.8-4.8v-8.3c0-2.2,1.5-4.1,3.7-4.7l4-1
		C8.9,41.2,10,40.4,10.7,39.2L10.7,39.2z"/>
	<path class="st2" d="M3.6,55.5v-8.3c0-2.2,1.5-4.1,3.7-4.7l4-1c1.3-0.3,2.4-1.1,3-2.3L20.1,29c1.7-3,4.9-4.9,8.4-4.9h-3.6
		c-3.5,0-6.7,1.9-8.4,4.9l-5.9,10.2c-0.7,1.1-1.7,2-3,2.3l-4,1C1.5,43.1,0,45,0,47.2v8.3c0,2.7,2.2,4.8,4.8,4.8h3.6
		C5.8,60.3,3.6,58.2,3.6,55.5z"/>
	<path class="st3" d="M0,47.2v3.5h3.6l1.2-4.8H0.2C0.1,46.3,0,46.8,0,47.2z"/>
	<circle class="st0" cx="53.1" cy="57.9" r="7.2"/>
	<path class="st4" d="M40.7,27.8H35v12.1h15.7l-5.8-9.7C44,28.6,42.4,27.8,40.7,27.8L40.7,27.8z"/>
	<circle class="st0" cx="16.9" cy="57.9" r="7.2"/>
	<path class="st4" d="M14.5,39.8h15.7V27.8h-5.7c-1.7,0-3.3,0.9-4.1,2.3L14.5,39.8z"/>
	<path class="st3" d="M62.8,45.9c0,2.7,2.2,4.8,4.8,4.8c0,0,0,0,0,0H70c-0.2-1.8-0.8-3.4-1.9-4.8H62.8z"/>
	<circle class="st0" cx="35" cy="18.1" r="13.3"/>
	<path class="st5" d="M25.4,18.1c0-6.6,4.9-12.2,11.4-13.1c-7.3-1.1-14,3.9-15.1,11.2c-1.1,7.3,3.9,14,11.2,15.1
		c1.3,0.2,2.6,0.2,3.9,0C30.3,30.3,25.4,24.7,25.4,18.1L25.4,18.1z"/>
	<path class="st3" d="M41,18.1h-3.6V8.4L29,18.1h3.6v9.7L41,18.1z"/>
	<path class="st0" d="M0,26.5h9.7l0,0v4.8c0,1.3-1.1,2.4-2.4,2.4H2.4c-1.3,0-2.4-1.1-2.4-2.4V26.5L0,26.5z"/>
	<path class="st5" d="M3.6,31.5v-5H0v4.8c0,1.3,1.1,2.4,2.4,2.4h2.8C4.3,33.4,3.6,32.5,3.6,31.5z"/>
	<circle class="st4" cx="53.1" cy="57.9" r="2.4"/>
	<circle class="st4" cx="16.9" cy="57.9" r="2.4"/>
	<path class="st0" d="M37.4,42.2H35c-0.7,0-1.2,0.5-1.2,1.2s0.5,1.2,1.2,1.2h2.4c0.7,0,1.2-0.5,1.2-1.2S38.1,42.2,37.4,42.2z"/>
	<path class="st0" d="M16.9,42.2h-2.4c-0.7,0-1.2,0.5-1.2,1.2s0.5,1.2,1.2,1.2h2.4c0.7,0,1.2-0.5,1.2-1.2S17.6,42.2,16.9,42.2z"/>
	<g>
		<path class="st4" d="M2.4,20.5c0.7,0,1.2,0.5,1.2,1.2v4.8l0,0H1.2l0,0v-4.8C1.2,21.1,1.7,20.5,2.4,20.5z"/>
		<path class="st4" d="M7.2,20.5c0.7,0,1.2,0.5,1.2,1.2v4.8l0,0H6l0,0v-4.8C6,21.1,6.6,20.5,7.2,20.5z"/>
	</g>
</g>
</svg>
