<?xml version="1.0" encoding="utf-8"?>
<!-- Generator: Adobe Illustrator 26.5.0, SVG Export Plug-In . SVG Version: 6.00 Build 0)  -->
<svg version="1.1" id="Layer_1" xmlns="http://www.w3.org/2000/svg" xmlns:xlink="http://www.w3.org/1999/xlink" x="0px" y="0px"
	 width="48px" height="48px" viewBox="0 0 70 70" style="enable-background:new 0 0 70 70;" xml:space="preserve">
<style type="text/css">
	.st0{fill:#58595B;}
	.st1{fill:#414042;}
	.st2{fill:#2266D3;}
	.st3{fill:#377DE2;}
	.st4{fill:#FFFFFF;}
	.st5{fill:#F1F2F2;}
	.st6{fill:#E6E7E8;}
	.st7{fill:#D1D3D4;}
	.st8{fill:#FFA91A;}
	.st9{fill:#FFC91D;}
	.st10{fill:#F79219;}
	.st11{fill:#EF7816;}
</style>
<g>
	<g>
		<path class="st0" d="M61.1,28.9v-5.5c0-0.8-0.7-1.5-1.5-1.5h-3.7c-0.6-2.7-1.6-5.3-3.1-7.5l2.6-2.6c0.6-0.6,0.6-1.6,0-2.2
			l-3.9-3.9c-0.6-0.6-1.6-0.6-2.2,0l-2.6,2.6c-2.2-1.5-4.8-2.6-7.5-3.1V1.5c0-0.8-0.7-1.5-1.5-1.5h-5.5c-0.8,0-1.5,0.7-1.5,1.5v3.7
			c-2.7,0.6-5.3,1.6-7.5,3.1l-2.6-2.6c-0.6-0.6-1.6-0.6-2.2,0l-3.9,3.9c-0.6,0.6-0.6,1.6,0,2.2l2.6,2.6c-1.5,2.2-2.6,4.8-3.1,7.5
			h-3.7c-0.8,0-1.5,0.7-1.5,1.5v5.5c0,0.8,0.7,1.5,1.5,1.5h3.7c0.6,2.7,1.6,5.3,3.1,7.5l-2.6,2.6c-0.6,0.6-0.6,1.6,0,2.2l3.9,3.9
			c0.6,0.6,1.6,0.6,2.2,0l2.6-2.6c2.2,1.5,4.8,2.6,7.5,3.1v3.7c0,0.8,0.7,1.5,1.5,1.5h5.5c0.8,0,1.5-0.7,1.5-1.5V47
			c2.7-0.6,5.3-1.6,7.5-3.1l2.6,2.6c0.6,0.6,1.6,0.6,2.2,0l3.9-3.9c0.6-0.6,0.6-1.6,0-2.2l-2.6-2.6c1.5-2.2,2.6-4.8,3.1-7.5h3.7
			C60.4,30.4,61.1,29.7,61.1,28.9L61.1,28.9z M35,37.4c-6.2,0-11.3-5-11.3-11.3c0-6.2,5-11.3,11.3-11.3c6.2,0,11.3,5,11.3,11.3
			C46.3,32.3,41.2,37.4,35,37.4z"/>
	</g>
	<g>
		<g>
			<path class="st1" d="M54,39c0.6,0.6,0.6,1.6,0,2.2l-3.9,3.9c-0.6,0.6-1.6,0.6-2.2,0l1.5,1.5c0.6,0.6,1.6,0.6,2.2,0l3.9-3.9
				c0.6-0.6,0.6-1.6,0-2.2L54,39z"/>
		</g>
		<g>
			<path class="st1" d="M59.7,21.9C59.7,21.9,59.7,21.9,59.7,21.9l0,5.5c0,0.8-0.7,1.5-1.5,1.5h-3.7c-0.6,2.7-1.6,5.3-3.1,7.5
				l1.5,1.5c1.5-2.2,2.6-4.8,3.1-7.5h3.7c0.8,0,1.5-0.7,1.5-1.5v-5.5C61.1,22.6,60.5,21.9,59.7,21.9L59.7,21.9z"/>
		</g>
	</g>
	<g>
		<g>
			<g>
				<g>
					<path class="st2" d="M22.2,39.7l-0.3-0.2c0,0,0,0.1,0,0.1l-0.1,0.1c-0.1,0.3-0.3,0.4-0.5,0.6l0.5,0.3L22.2,39.7z"/>
					<g>
						<path class="st3" d="M20.3,40.5L19.1,40c-0.5-0.2-0.8-0.7-0.8-1.3l0-0.3c0-0.4,0.4-0.7,0.8-0.6l1.7,0.2c0.8,0.1,1.3,0.9,1,1.6
							l-0.1,0.1C21.6,40.4,20.9,40.7,20.3,40.5L20.3,40.5z"/>
					</g>
				</g>
				<g>
					<path class="st2" d="M48.1,40.7l0.5-0.3c-0.2-0.1-0.4-0.3-0.5-0.6l-0.1-0.1c0,0,0-0.1,0-0.1l-0.3,0.2L48.1,40.7z"/>
					<g>
						<path class="st3" d="M49.7,40.5l1.2-0.4c0.5-0.2,0.8-0.7,0.8-1.3l0-0.3c0-0.4-0.4-0.7-0.8-0.6L49.1,38c-0.8,0.1-1.3,0.9-1,1.6
							l0.1,0.1C48.4,40.4,49.1,40.7,49.7,40.5L49.7,40.5z"/>
					</g>
				</g>
			</g>
			<g>
				<path class="st1" d="M22.4,53.9c-0.8,0-1.6-0.4-2.1-0.9v2.2c0,0.8,0.6,1.5,1.5,1.5h2.5c0.8,0,1.5-0.6,1.5-1.5v-1.3L22.4,53.9
					L22.4,53.9z"/>
				<path class="st1" d="M47.6,53.9h-3.3v1.3c0,0.8,0.6,1.5,1.5,1.5h2.5c0.8,0,1.5-0.6,1.5-1.5V53C49.2,53.5,48.4,53.9,47.6,53.9z"
					/>
			</g>
			<g>
				<path class="st3" d="M22.4,53.9l25.1,0c1.6,0,2.9-1.3,2.9-2.9v-5.2c0-0.8-0.2-1.7-0.7-2.4l-1.5-2.2H21.7l-1.5,2.2
					c-0.5,0.7-0.7,1.5-0.7,2.4V51C19.5,52.6,20.8,53.9,22.4,53.9L22.4,53.9z"/>
			</g>
			<g>
				<path class="st2" d="M50.5,45.7c0-0.8-0.2-1.7-0.7-2.4l-1.5-2.2h-0.5l0.5,0.8c0.5,0.7,0.7,1.5,0.7,2.4v5.2
					c0,1.6-1.3,2.9-2.9,2.9l-25.1,0c-0.4,0-0.8-0.1-1.2-0.3c0.5,1,1.5,1.7,2.6,1.7l25.1,0c1.6,0,2.9-1.3,2.9-2.9L50.5,45.7z"/>
			</g>
			<g>
				<path class="st1" d="M39.3,49.6h-8.6c-0.4,0-0.8-0.3-0.9-0.7l-0.5-1.8c-0.2-0.6,0.3-1.2,0.9-1.2h9.5c0.6,0,1.1,0.6,0.9,1.2
					l-0.5,1.8C40.1,49.3,39.7,49.6,39.3,49.6z"/>
			</g>
			<g>
				<path class="st2" d="M47.9,42.2l-0.5-1c-0.1-0.1-0.2-0.2-0.3-0.2H22.9c-0.1,0-0.3,0.1-0.3,0.2l-0.5,1c-0.3,0.5,0,1.2,0.5,1.4
					l4.1,1.5c0.2,0.1,0.4,0.1,0.7,0.1h15.4c0.2,0,0.4,0,0.7-0.1l4.1-1.5C48,43.4,48.2,42.8,47.9,42.2L47.9,42.2z"/>
			</g>
			<g>
				<g>
					<path class="st4" d="M43,46.7c0.8-0.8,2.5-2,5.9-2c0.2,0,0.3,0.1,0.4,0.3c0.2,0.6,0.6,1.9-0.8,2.3c-1.3,0.4-4,0.2-5.3,0.1
						C42.9,47.3,42.7,46.9,43,46.7L43,46.7z"/>
				</g>
				<g>
					<path class="st5" d="M49.3,44.9c-0.1-0.2-0.2-0.3-0.4-0.3c-0.1,0-0.2,0-0.3,0c0.1,0.6,0,1.4-0.9,1.7c-1,0.3-3.1,0.3-4.5,0.2
						c-0.1,0.1-0.1,0.1-0.2,0.2c-0.2,0.2-0.1,0.6,0.2,0.7c1.3,0.1,4,0.2,5.3-0.1C49.8,46.8,49.5,45.5,49.3,44.9L49.3,44.9z"/>
				</g>
				<g>
					<path class="st4" d="M27,46.7c-0.8-0.8-2.5-2-5.9-2c-0.2,0-0.3,0.1-0.4,0.3c-0.2,0.6-0.6,1.9,0.8,2.3c1.3,0.4,4,0.2,5.3,0.1
						C27.1,47.3,27.3,46.9,27,46.7L27,46.7z"/>
				</g>
				<g>
					<path class="st5" d="M27,46.7c-0.2-0.2-0.4-0.4-0.8-0.6c0,0.2-0.1,0.4-0.4,0.4c-1.3,0.1-4,0.2-5.3-0.1c0,0,0,0-0.1,0
						c0.1,0.4,0.4,0.7,0.9,0.9c1.3,0.4,4,0.2,5.3,0.1C27.1,47.3,27.3,46.9,27,46.7z"/>
				</g>
			</g>
			<g>
				<path class="st3" d="M43,32.2H27c-1.2,0-2.3,0.8-2.7,1.9l-2.6,7h26.5l-2.6-7C45.3,32.9,44.2,32.2,43,32.2L43,32.2z"/>
			</g>
			<g>
				<path class="st6" d="M23.3,39.2l1.7-4.5c0.2-0.6,0.8-0.9,1.4-0.9h17.3c0.6,0,1.1,0.4,1.4,0.9l1.7,4.5c0.1,0.4-0.1,0.8-0.5,0.8
					H23.9C23.5,39.9,23.2,39.5,23.3,39.2z"/>
			</g>
			<g>
				<path class="st7" d="M46.7,39.2L45,34.6c-0.2-0.5-0.7-0.9-1.3-0.9l1.5,4c0.1,0.4-0.1,0.8-0.5,0.8H23.6l-0.2,0.7
					c-0.1,0.4,0.1,0.8,0.5,0.8h22.3C46.5,39.9,46.8,39.5,46.7,39.2z"/>
			</g>
		</g>
		<g>
			<path class="st1" d="M44.5,52.3h-19c-0.3,0-0.5-0.4-0.3-0.6l0.5-0.7c0.2-0.2,0.5-0.4,0.8-0.4h17c0.3,0,0.6,0.1,0.8,0.4l0.5,0.7
				C45,51.9,44.9,52.3,44.5,52.3z"/>
		</g>
		<g>
			<g>
				<g>
					<circle class="st7" cx="47" cy="51.5" r="1.1"/>
				</g>
				<g>
					<circle class="st4" cx="47" cy="51.5" r="0.7"/>
				</g>
			</g>
			<g>
				<g>
					<circle class="st7" cx="23" cy="51.5" r="1.1"/>
				</g>
				<g>
					<circle class="st4" cx="23" cy="51.5" r="0.7"/>
				</g>
			</g>
		</g>
	</g>
	<g>
		<path class="st8" d="M12.4,56.6h45.2c1.6,0,2.9,1.3,2.9,2.9v7.6c0,1.6-1.3,2.9-2.9,2.9H12.4c-1.6,0-2.9-1.3-2.9-2.9v-7.6
			C9.5,57.9,10.8,56.6,12.4,56.6L12.4,56.6z"/>
	</g>
	<g>
		<path class="st9" d="M31.7,58.9h-0.3c-0.3,0-0.6-0.3-0.6-0.6c0-0.3,0.3-0.6,0.6-0.6h0.3c0.3,0,0.6,0.3,0.6,0.6
			C32.3,58.6,32,58.9,31.7,58.9z M29.1,58.9H14c-0.3,0-0.6-0.3-0.6-0.6c0-0.3,0.3-0.6,0.6-0.6h15.1c0.3,0,0.6,0.3,0.6,0.6
			C29.7,58.6,29.4,58.9,29.1,58.9z"/>
	</g>
	<g>
		<path class="st10" d="M57.6,56.6v7.6c0,1.6-1.3,2.9-2.9,2.9H9.5c0,1.6,1.3,2.9,2.9,2.9h45.2c1.6,0,2.9-1.3,2.9-2.9v-7.6
			C60.5,57.9,59.2,56.6,57.6,56.6z"/>
	</g>
	<g>
		<path class="st11" d="M58.8,56.8C59,57.2,59,57.6,59,58v7.6c0,1.6-1.3,2.9-2.9,2.9H11c-0.4,0-0.8-0.1-1.2-0.3
			c0.5,1,1.5,1.7,2.6,1.7h45.2c1.6,0,2.9-1.3,2.9-2.9v-7.6C60.5,58.3,59.8,57.3,58.8,56.8z"/>
	</g>
	<g>
		<g>
			<path class="st0" d="M51.7,64.7H18.3c-0.8,0-1.5-0.6-1.5-1.5s0.6-1.5,1.5-1.5h33.5c0.8,0,1.5,0.6,1.5,1.5S52.5,64.7,51.7,64.7z"
				/>
		</g>
	</g>
	<g>
		<path class="st1" d="M52.4,62c0.1,0.2,0.2,0.4,0.2,0.7c0,0.8-0.6,1.5-1.5,1.5H17.7c-0.3,0-0.5-0.1-0.7-0.2
			c0.2,0.5,0.7,0.8,1.3,0.8h33.5c0.8,0,1.5-0.6,1.5-1.5C53.2,62.7,52.9,62.3,52.4,62z"/>
	</g>
	<g>
		<circle class="st5" cx="43.9" cy="63.3" r="2.7"/>
	</g>
	<g>
		<path class="st7" d="M45.6,61.1c0.3,0.5,0.5,1,0.5,1.6c0,1.5-1.2,2.7-2.7,2.7c-0.6,0-1.2-0.2-1.6-0.5c0.5,0.7,1.3,1.1,2.2,1.1
			c1.5,0,2.7-1.2,2.7-2.7C46.7,62.4,46.2,61.6,45.6,61.1z"/>
	</g>
</g>
</svg>
